<?xml version="1.0" standalone="no"?>
<!DOCTYPE svg PUBLIC "-//W3C//DTD SVG 20010904//EN"
 "http://www.w3.org/TR/2001/REC-SVG-20010904/DTD/svg10.dtd">
<svg version="1.0" xmlns="http://www.w3.org/2000/svg"
 width="850.000000pt" height="850.000000pt" viewBox="0 0 850.000000 850.000000"
 preserveAspectRatio="xMidYMid meet">
<metadata>
Created by potrace 1.14, written by Peter Selinger 2001-2017
</metadata>
<g transform="translate(0.000000,850.000000) scale(0.100000,-0.100000)"
fill="#000000" stroke="none">
<path d="M5870 7660 c0 -6 -8 -10 -17 -8 -10 2 -17 -1 -16 -7 1 -5 -12 -11
-29 -11 -17 -1 -34 -7 -38 -13 -4 -7 -9 -12 -11 -11 -6 2 -43 -11 -59 -21 -8
-5 -23 -12 -32 -15 -9 -3 -22 -18 -28 -34 -6 -15 -22 -33 -36 -40 -13 -8 -22
-16 -19 -18 3 -3 0 -11 -6 -18 -16 -19 7 -27 25 -8 15 14 16 14 16 -1 0 -10 4
-13 13 -8 6 4 21 8 32 8 11 0 26 4 34 9 10 7 12 6 6 -4 -6 -10 -4 -11 11 -6
10 5 25 9 32 9 6 0 12 3 12 7 0 4 18 15 40 25 22 10 37 22 34 26 -3 5 1 7 8 4
26 -9 112 50 131 89 10 20 15 41 12 46 -9 15 -82 12 -88 -2 -4 -10 -6 -10 -6
0 -1 15 -21 16 -21 2z m-15 -80 c-3 -5 -12 -10 -18 -10 -7 0 -6 4 3 10 19 12
23 12 15 0z"/>
<path d="M4730 6988 c0 -5 -5 -6 -10 -3 -6 4 -18 1 -27 -7 -14 -11 -16 -11 -8
2 4 8 -9 -1 -30 -20 -21 -19 -34 -29 -30 -21 6 10 4 12 -4 7 -7 -5 -10 -14 -7
-22 3 -8 0 -13 -7 -11 -6 1 -13 -8 -15 -20 -4 -24 -1 -24 -109 -7 -210 32
-608 36 -748 8 -16 -3 -48 -7 -70 -9 -22 -2 -40 -4 -40 -5 0 -1 -11 -3 -25 -6
-14 -2 -56 -11 -95 -19 -38 -8 -79 -17 -90 -19 -11 -3 -41 -11 -67 -19 -27 -8
-48 -13 -48 -11 0 3 -13 -2 -29 -10 -15 -8 -39 -17 -52 -20 -13 -2 -37 -9 -54
-16 -16 -6 -31 -11 -33 -11 -1 1 -16 -6 -32 -14 -16 -8 -32 -16 -35 -16 -35
-2 -331 -152 -445 -227 -47 -30 -86 -54 -88 -53 -1 1 -12 -8 -25 -19 -12 -11
-45 -37 -73 -58 -29 -20 -76 -57 -105 -82 -84 -70 -379 -370 -363 -370 2 0
-20 -28 -56 -69 -8 -10 -19 -25 -25 -33 -27 -42 -90 -134 -95 -138 -7 -7 -31
-49 -87 -150 -26 -47 -51 -88 -57 -92 -6 -4 -8 -8 -4 -8 4 0 -8 -30 -26 -67
-39 -79 -127 -308 -129 -335 -1 -10 -6 -18 -11 -18 -5 0 -7 -3 -4 -6 3 -3 -4
-39 -17 -80 -13 -41 -23 -77 -24 -79 -4 -42 -26 -125 -32 -125 -5 0 -9 4 -9 8
0 5 -8 17 -18 28 -10 10 -21 27 -25 37 -4 11 -12 15 -18 11 -7 -4 -9 -3 -6 3
8 12 -25 53 -42 53 -7 0 -9 5 -6 10 3 6 2 10 -3 10 -6 0 -12 7 -16 15 -3 8 -2
14 2 12 4 -1 8 1 10 6 5 16 1 24 -13 25 -8 1 -22 3 -30 4 -8 1 -15 6 -15 11 0
5 -6 4 -14 -2 -11 -9 -16 -9 -22 0 -5 8 -3 9 6 4 10 -6 12 -1 8 18 -3 17 -1
24 5 20 6 -4 8 0 4 10 -3 9 -1 18 6 21 7 2 4 5 -6 5 -10 1 -30 14 -45 30 -21
23 -33 28 -55 24 -26 -5 -39 -23 -15 -23 6 0 8 -3 5 -7 -4 -3 -1 -13 6 -22 10
-14 10 -14 -3 -5 -8 6 -25 10 -37 9 -12 -1 -20 2 -17 7 3 4 -2 11 -10 14 -9 3
-13 10 -10 15 3 5 -2 9 -10 9 -9 0 -16 7 -16 15 0 8 -3 14 -7 13 -5 -1 -18 2
-31 6 -14 4 -28 3 -36 -3 -7 -6 -16 -8 -19 -4 -4 3 -9 -2 -13 -11 -3 -9 -12
-16 -20 -16 -7 0 -19 -8 -26 -17 -7 -10 -29 -20 -48 -21 -19 -2 -38 -9 -41
-14 -4 -6 -10 -1 -14 10 -5 17 -9 19 -19 9 -8 -6 -13 -16 -12 -22 4 -21 27
-55 35 -51 4 3 8 0 9 -7 0 -7 3 -21 5 -33 7 -28 -18 -27 -34 2 -13 26 -41 42
-32 18 3 -7 0 -14 -7 -14 -9 0 -9 -4 1 -17 8 -9 9 -14 2 -10 -7 4 -16 -5 -25
-23 -7 -16 -16 -30 -20 -30 -5 0 -7 3 -5 8 1 4 -1 7 -4 7 -3 0 -14 7 -24 15
-11 9 -16 10 -11 3 4 -7 3 -13 -3 -13 -5 0 -8 -9 -6 -20 2 -11 -2 -20 -8 -20
-7 0 -6 -4 3 -10 8 -5 10 -10 5 -10 -14 0 -17 -38 -4 -46 6 -4 6 -11 -2 -20
-9 -11 -9 -14 1 -14 9 0 10 -3 1 -13 -6 -8 -9 -16 -6 -19 2 -2 7 -22 11 -44 3
-21 9 -43 12 -49 4 -5 7 -14 7 -20 1 -5 6 -29 13 -52 12 -40 21 -48 46 -44 5
1 4 -5 -4 -13 -10 -13 -10 -16 0 -16 9 0 7 -7 -6 -21 l-19 -22 25 14 c29 15
52 20 45 10 -2 -4 21 -30 51 -57 31 -27 62 -54 69 -61 7 -7 16 -9 19 -5 4 3 4
-1 0 -11 -4 -12 -1 -17 11 -17 10 0 13 -5 9 -12 -5 -8 -2 -9 11 -4 15 5 16 4
5 -9 -9 -11 -9 -15 -1 -15 6 0 16 -10 21 -22 l9 -23 0 23 c1 27 12 28 29 2 7
-12 17 -18 22 -15 5 3 11 -4 15 -15 3 -11 13 -20 21 -20 8 0 14 -5 14 -10 0
-6 8 -14 17 -17 9 -4 30 -19 47 -35 16 -15 35 -28 42 -28 8 0 14 -4 14 -10 0
-5 5 -10 10 -10 19 0 10 17 -29 59 -21 22 -34 41 -27 41 6 0 4 5 -4 10 -28 18
34 11 72 -8 25 -13 33 -23 28 -33 -4 -8 -1 -27 6 -44 7 -16 13 -26 14 -21 0 8
70 -92 70 -101 0 -3 12 -17 26 -30 21 -19 29 -21 40 -12 12 10 13 9 8 -5 -4
-12 0 -16 15 -16 12 0 20 -3 20 -7 -1 -5 0 -10 1 -13 1 -3 3 -18 5 -35 1 -16
5 -45 9 -62 3 -18 8 -48 11 -65 3 -18 13 -62 21 -98 9 -36 17 -72 19 -81 2 -8
10 -38 18 -65 12 -41 12 -51 1 -62 -7 -6 -18 -12 -24 -12 -5 0 -8 -10 -6 -22
1 -12 -3 -29 -11 -36 -11 -11 -11 -17 -2 -28 9 -12 9 -13 -3 -9 -15 6 -65 -31
-61 -46 2 -5 -4 -9 -13 -9 -8 0 -12 -4 -9 -10 4 -6 16 -3 33 8 25 16 26 16 18
-3 -4 -11 -10 -31 -12 -44 -3 -13 -9 -32 -15 -43 -11 -20 -6 -22 21 -8 13 7
21 7 26 -2 4 -7 3 -8 -5 -4 -8 5 -10 0 -7 -17 3 -18 -3 -28 -25 -41 -16 -9
-29 -14 -29 -9 0 10 -20 -19 -20 -29 0 -10 34 -10 44 -1 4 5 13 8 19 8 7 1 11
7 9 13 -2 10 3 10 17 2 13 -7 22 -7 26 0 4 6 11 8 16 5 5 -4 9 -2 9 3 0 6 10
8 22 4 14 -3 19 -2 14 6 -5 9 0 9 18 2 17 -6 27 -6 32 1 3 6 15 9 25 6 11 -3
19 0 19 6 1 7 19 -23 41 -65 21 -43 39 -81 38 -84 0 -4 3 -10 8 -13 5 -3 24
-33 42 -66 31 -56 131 -211 158 -245 6 -8 34 -44 62 -79 28 -35 51 -68 51 -73
0 -5 5 -6 10 -3 6 3 10 2 10 -4 0 -6 21 -33 48 -62 82 -90 118 -124 271 -262
13 -12 27 -22 30 -22 3 0 17 -11 31 -25 14 -14 32 -29 41 -35 9 -5 51 -35 93
-65 42 -30 96 -66 119 -79 23 -12 49 -29 57 -35 31 -26 267 -139 385 -186 67
-27 165 -61 216 -77 52 -15 96 -30 99 -33 3 -3 14 -6 25 -6 11 -1 54 -9 95
-19 78 -17 89 -19 155 -29 22 -3 49 -8 60 -10 96 -19 535 -28 630 -13 22 3 63
9 90 12 47 5 128 19 185 30 14 3 36 7 50 10 14 2 61 14 105 26 44 11 85 22 90
23 6 1 15 4 20 7 10 6 62 22 80 24 6 1 21 7 35 13 14 6 59 24 101 41 69 27
248 108 293 132 14 8 16 8 10 -2 -5 -9 -2 -11 8 -6 9 3 19 3 22 0 11 -11 75
-10 70 1 -3 6 1 3 9 -7 8 -10 18 -14 21 -9 5 9 57 7 82 -2 7 -3 21 2 33 10 11
8 21 12 21 7 0 -4 5 -1 10 7 7 11 10 12 10 2 0 -9 9 -7 29 7 15 11 31 18 35
14 3 -3 6 -2 6 3 0 5 9 10 21 11 12 1 28 10 36 20 8 10 12 13 9 6 -5 -8 0 -8
18 0 13 7 22 15 20 19 -3 4 2 5 10 2 11 -4 16 0 16 12 0 14 2 16 9 6 7 -11 11
-11 23 2 9 8 18 12 22 9 3 -3 8 2 12 11 3 9 10 14 14 11 5 -3 15 1 23 9 8 8
18 12 22 8 4 -4 4 4 1 18 -6 19 -5 22 3 10 9 -12 13 -13 20 -2 4 8 12 13 17
12 5 0 11 7 13 17 2 10 8 21 13 24 5 3 -8 9 -29 12 -39 7 -73 40 -52 53 6 3 8
17 5 29 -6 22 -3 23 30 20 31 -3 33 -2 17 10 -9 7 -26 11 -37 9 -10 -2 -28 1
-38 7 -15 8 -19 8 -14 0 4 -6 2 -11 -3 -11 -6 0 -11 4 -11 10 0 5 -3 9 -7 9
-5 -1 -11 -1 -15 0 -3 0 41 48 98 105 57 58 104 109 104 114 0 5 12 20 28 34
50 47 223 288 252 352 29 63 7 103 -61 113 -27 4 -79 -29 -79 -51 0 -6 -7 -21
-15 -31 -8 -11 -47 -65 -86 -120 -38 -55 -74 -101 -79 -103 -6 -2 -10 -8 -10
-13 0 -13 -43 -60 -187 -206 -115 -116 -143 -138 -143 -112 0 6 -6 9 -14 6 -8
-3 -22 2 -32 11 -23 21 -60 29 -48 11 5 -8 3 -10 -7 -4 -19 12 -49 14 -55 3
-3 -4 -11 -8 -17 -8 -7 0 -6 4 3 10 13 8 13 10 -2 11 -19 2 -53 6 -65 8 -4 0
-2 6 5 13 18 18 15 31 -5 23 -10 -4 -27 -9 -38 -10 -11 -1 -19 -8 -17 -15 2
-11 0 -11 -12 -1 -8 6 -17 8 -20 3 -3 -5 -18 -8 -33 -7 -15 1 -38 -2 -50 -6
-16 -6 -23 -5 -23 4 0 8 -3 8 -8 2 -4 -6 -14 -10 -22 -10 -8 1 -20 -2 -25 -6
-6 -4 -17 -4 -24 0 -7 5 -22 6 -32 4 -13 -4 -19 0 -19 11 0 21 -12 20 -38 -4
-12 -11 -28 -20 -36 -20 -8 0 -18 -5 -21 -10 -4 -6 -11 -7 -17 -4 -8 5 -9 1
-4 -12 6 -15 5 -17 -5 -7 -16 16 -65 17 -74 2 -4 -6 -13 -8 -20 -5 -7 2 -16
-2 -19 -10 -3 -8 -11 -13 -18 -12 -7 2 -12 -4 -10 -12 3 -12 1 -13 -9 -2 -17
16 -32 16 -23 -1 4 -6 -1 -5 -12 4 -30 25 -41 29 -41 16 0 -21 -55 -137 -65
-137 -5 0 -6 -4 -3 -10 3 -5 1 -10 -4 -10 -6 0 -11 -6 -11 -13 0 -18 79 -69
92 -60 7 4 8 1 2 -8 -5 -8 -9 -21 -9 -29 0 -9 -11 -16 -27 -18 -16 -2 -28 -8
-28 -13 0 -6 4 -8 9 -5 5 3 12 -2 15 -11 5 -12 10 -13 18 -5 7 7 17 8 28 2 10
-5 36 -11 58 -12 22 -2 38 -6 35 -10 -2 -5 5 -8 16 -8 11 0 23 -5 26 -11 4 -6
13 -8 21 -5 8 3 14 1 14 -5 0 -6 4 -7 10 -4 6 3 10 2 10 -3 0 -6 12 -13 28
-17 27 -8 27 -8 -18 -28 -74 -33 -241 -87 -251 -81 -5 3 -9 1 -9 -4 0 -6 -17
-13 -37 -18 -43 -9 -51 -10 -58 -14 -3 -1 -13 -3 -22 -5 -10 -1 -25 -4 -33 -8
-24 -9 -93 -21 -180 -31 -19 -2 -35 -5 -35 -6 0 -7 -182 -21 -270 -21 -69 1
-220 8 -220 11 0 0 -36 3 -80 5 -44 3 -93 7 -110 9 -16 3 -52 8 -80 11 -139
18 -356 75 -515 135 -84 31 -330 148 -340 160 -3 4 -20 13 -37 21 -18 8 -33
17 -33 21 0 5 -3 7 -7 6 -15 -4 -175 95 -219 136 -7 6 -24 20 -40 31 -76 54
-145 116 -254 227 -95 96 -167 177 -184 206 -5 9 -20 26 -33 38 -12 12 -23 26
-23 31 0 5 -8 18 -18 29 -45 49 -178 274 -162 274 19 0 25 2 36 11 7 6 16 4
23 -5 7 -8 19 -12 27 -9 8 3 14 0 14 -7 0 -6 5 -10 12 -8 7 3 23 -6 36 -19 13
-14 31 -22 39 -19 9 4 11 2 7 -6 -5 -8 -2 -9 9 -5 10 4 16 2 14 -5 -1 -7 7
-14 18 -16 11 -2 17 -1 13 3 -8 9 16 35 32 35 6 0 9 4 6 9 -3 5 2 11 12 13 22
6 28 63 8 83 -7 8 -16 11 -20 8 -3 -4 -6 1 -6 10 0 9 -6 17 -14 17 -8 0 -21 9
-29 21 -11 15 -16 17 -20 7 -4 -9 -6 -7 -6 5 -1 9 -6 17 -12 17 -7 0 -18 8
-25 18 -12 15 -15 15 -24 2 -8 -13 -10 -13 -10 1 0 10 -12 20 -27 24 -26 6
-27 7 -8 18 11 6 22 10 25 10 3 0 18 10 33 23 16 13 32 24 36 24 4 0 17 9 29
20 12 12 22 18 22 14 0 -3 7 -1 15 6 12 10 15 10 15 0 0 -10 3 -10 15 0 8 7
15 19 15 27 0 8 5 11 10 8 6 -3 10 -2 10 4 0 5 12 23 26 40 14 17 23 35 19 41
-3 6 0 7 9 4 9 -3 17 -1 17 5 2 14 4 22 12 41 18 44 16 89 -4 112 -11 12 -18
16 -14 8 4 -8 -1 -6 -9 4 -12 15 -16 16 -16 5 -1 -10 -3 -9 -11 4 -6 9 -14 15
-18 13 -11 -7 -102 -9 -128 -2 -15 3 -27 -1 -34 -12 -10 -16 -10 -16 -5 0 4
15 -4 16 -80 13 -67 -2 -89 -7 -102 -22 -9 -10 -26 -25 -36 -33 -18 -13 -19
-13 -11 0 7 12 6 13 -6 4 -8 -6 -32 -12 -54 -13 -53 -2 -73 -5 -82 -15 -4 -4
-2 -6 6 -4 24 6 22 -17 -3 -28 -24 -11 -29 -4 -36 51 -1 3 -7 23 -15 45 -8 24
-10 42 -4 45 5 4 9 1 9 -4 0 -6 6 -11 14 -11 8 0 21 -6 28 -12 16 -16 40 -17
50 -3 5 6 8 4 8 -4 0 -11 6 -9 20 7 21 22 27 62 10 62 -5 0 -10 5 -10 10 0 6
-11 22 -25 36 -14 14 -25 23 -25 20 0 -3 -11 6 -25 19 -21 22 -42 30 -67 26
-5 0 -8 4 -8 10 0 5 -4 8 -9 4 -5 -3 -12 21 -16 52 -4 32 -9 69 -11 83 -2 14
-6 76 -10 138 -6 112 -6 113 20 137 14 13 26 22 26 19 0 -2 14 2 30 11 17 9
30 20 30 26 0 6 4 7 10 4 16 -10 36 43 22 57 -16 16 -74 19 -91 5 -12 -10 -13
-9 -6 3 6 12 5 13 -6 3 -15 -15 -43 -18 -34 -4 3 5 7 40 10 78 6 79 12 137 20
173 2 14 7 41 10 60 3 19 13 64 21 100 9 36 17 74 20 85 2 12 13 48 24 80 11
33 20 60 20 60 -5 0 67 188 93 245 12 25 21 47 22 50 1 3 14 30 30 60 16 30
28 58 27 63 -1 4 2 7 6 7 5 0 14 16 22 35 8 19 17 35 20 35 4 0 12 12 19 27
12 26 100 163 111 173 3 3 17 21 30 40 24 34 42 57 85 106 11 13 38 46 60 73
22 28 46 50 53 51 6 0 12 4 12 10 0 20 144 151 306 279 6 5 51 36 100 70 49
33 95 65 102 71 6 6 12 8 12 4 0 -4 8 0 18 9 17 15 294 157 316 161 6 2 25 9
41 15 103 43 263 94 366 117 100 22 164 34 204 39 22 2 51 7 65 10 52 11 415
25 433 17 4 -2 36 -5 70 -7 72 -4 151 -13 187 -20 14 -3 45 -8 70 -11 25 -3
53 -7 62 -10 9 -3 26 -7 38 -9 12 -2 30 -7 40 -10 10 -3 27 -8 39 -10 75 -14
272 -80 374 -124 26 -11 49 -21 52 -21 3 0 57 -27 121 -60 159 -82 387 -233
456 -302 10 -10 18 -15 18 -11 0 3 18 -12 40 -35 22 -22 40 -38 40 -36 0 6
148 -144 198 -200 40 -47 55 -75 30 -60 -8 5 -9 2 -5 -9 4 -11 1 -17 -9 -17
-15 0 -28 -9 -66 -45 -11 -11 -17 -14 -13 -6 5 9 -2 7 -18 -5 -15 -10 -27 -22
-27 -26 0 -5 -7 -8 -16 -8 -8 0 -12 -4 -9 -10 3 -5 1 -10 -4 -10 -6 0 -11 -7
-11 -15 0 -9 -10 -26 -21 -38 -12 -12 -18 -15 -14 -7 4 8 -2 5 -14 -7 -12 -13
-27 -23 -33 -23 -6 0 -5 -7 3 -17 12 -15 12 -16 -5 -10 -14 6 -16 4 -9 -5 12
-14 11 -47 -1 -66 -4 -7 -2 -12 4 -12 6 0 2 -9 -9 -21 -11 -12 -18 -30 -16
-41 3 -12 2 -18 -2 -15 -3 4 -15 -5 -25 -19 -21 -26 -18 -44 4 -27 20 15 57
22 64 12 3 -5 10 -7 15 -4 15 10 -2 -29 -19 -42 -14 -12 -14 -13 1 -13 9 0 24
9 34 19 18 19 52 14 41 -5 -3 -5 -2 -18 2 -28 5 -14 -1 -26 -19 -42 -14 -12
-23 -25 -20 -28 3 -3 15 3 26 14 12 10 23 16 26 14 3 -3 8 4 12 15 3 11 15 23
26 26 10 4 17 11 14 16 -4 5 2 12 12 16 10 4 21 11 25 17 5 7 8 6 8 -3 0 -10
3 -11 13 -3 7 6 18 7 26 3 9 -6 10 -11 2 -15 -6 -4 -11 -13 -11 -19 0 -7 4 -6
10 3 5 8 10 11 10 6 0 -5 7 -3 15 4 8 6 19 9 25 5 5 -3 10 -1 10 5 0 6 5 8 10
5 6 -3 10 -1 10 4 0 6 8 11 17 11 9 0 25 8 36 18 11 9 17 12 14 5 -8 -13 30
-6 51 10 8 6 12 6 12 -2 0 -6 7 -11 15 -11 8 0 15 5 15 10 0 6 7 10 15 10 8 0
15 4 15 8 0 5 11 14 24 20 22 10 25 6 74 -91 75 -151 154 -360 187 -494 18
-71 46 -205 50 -238 3 -22 7 -51 10 -65 31 -155 23 -427 -13 -505 -6 -11 -20
-41 -32 -67 -23 -50 -93 -132 -104 -121 -3 3 -6 2 -6 -4 0 -25 -131 -81 -209
-90 -60 -7 -153 -6 -206 1 -56 8 -90 14 -90 16 0 1 -11 4 -25 6 -44 8 -184 55
-197 66 -7 6 -13 7 -13 2 0 -4 -5 -3 -12 4 -7 7 -20 12 -30 12 -10 0 -18 5
-18 12 0 6 -3 9 -6 5 -10 -10 -264 130 -264 146 0 4 -4 6 -9 3 -10 -7 -111 88
-111 104 0 6 -6 17 -12 25 -7 7 -29 33 -48 57 -55 71 -134 124 -263 176 -15 7
-31 22 -36 34 -12 34 2 312 34 678 14 154 16 206 19 404 3 155 0 220 -9 247
-8 20 -12 39 -10 41 2 2 -12 22 -33 43 -65 69 -164 105 -286 101 -44 -1 -87
-4 -95 -6 -37 -12 -84 -86 -96 -153 -4 -20 -11 -37 -17 -37 -5 0 -6 -4 -3 -10
7 -11 -23 -2 -42 13 -7 5 -13 6 -13 2 0 -4 -6 -3 -12 2 -17 13 -59 23 -53 13
3 -5 -2 -15 -10 -23 -8 -9 -15 -20 -15 -26 0 -6 -4 -10 -9 -8 -13 3 -61 -52
-50 -59 5 -3 7 -10 4 -15 -5 -8 24 -14 48 -10 4 0 7 -4 7 -9 0 -7 6 -7 20 0
11 6 20 7 20 3 0 -4 5 -1 10 7 6 10 10 11 10 3 0 -20 18 -15 25 7 4 11 11 18
16 14 6 -3 13 3 16 15 3 12 9 21 13 21 8 0 6 -57 -4 -107 -3 -12 -8 -53 -11
-90 -4 -37 -8 -79 -11 -93 -2 -14 -7 -77 -10 -140 -17 -301 -17 -301 -22 -295
-3 2 -23 -10 -46 -28 -22 -17 -37 -26 -32 -19 7 11 4 11 -13 0 -16 -9 -18 -14
-7 -16 8 -2 17 -10 20 -18 4 -10 2 -12 -6 -8 -8 5 -9 2 -5 -10 4 -11 3 -15 -4
-11 -6 4 -13 -2 -16 -14 -3 -12 -12 -21 -20 -21 -8 0 -12 -4 -8 -9 3 -5 0 -13
-7 -17 -8 -5 -5 -10 8 -14 10 -4 23 -8 28 -8 5 0 12 -5 15 -11 4 -6 19 -12 34
-13 15 -1 27 -5 27 -9 0 -4 9 -9 21 -12 21 -6 21 -9 16 -154 -4 -81 -6 -149
-6 -149 -3 -6 -64 -25 -96 -29 -22 -4 -48 -8 -57 -11 -10 -3 -28 -7 -40 -10
-77 -14 -169 -40 -316 -89 -73 -25 -141 -45 -151 -45 -17 0 -18 8 -14 98 2 53
5 131 7 173 2 42 6 81 10 87 3 6 2 13 -4 17 -6 4 -8 10 -5 15 3 5 8 69 11 142
5 142 7 168 19 293 4 44 8 95 8 113 0 17 3 32 6 32 3 0 6 15 6 33 1 34 12 118
20 139 2 7 6 29 9 48 7 46 14 84 26 145 33 165 5 231 -124 295 -95 47 -161 62
-269 62 -131 -1 -192 -37 -218 -131 -13 -45 -15 -57 -18 -105 -1 -16 -9 -27
-26 -33 l-25 -8 20 -38 c19 -35 20 -51 15 -230 -3 -105 -7 -203 -10 -217 -5
-24 -18 -227 -17 -262 0 -10 -3 -20 -9 -23 -5 -4 -5 -13 1 -24 5 -10 7 -20 5
-23 -9 -8 -14 -169 -15 -465 -1 -215 -4 -294 -13 -300 -7 -4 -28 -8 -48 -9
-20 0 -40 -4 -45 -7 -5 -3 -41 -8 -79 -11 -39 -4 -83 -8 -99 -10 -30 -4 -96
13 -96 24 0 4 -6 7 -12 8 -7 0 -24 3 -38 7 -67 18 -118 27 -145 27 -67 0 -84
-6 -96 -34 -15 -36 -6 -68 27 -102 21 -20 25 -29 16 -38 -9 -9 -12 -9 -12 3 0
12 -2 12 -10 -1 -6 -10 -10 -11 -10 -2 0 18 -24 15 -36 -5 -6 -10 -9 -29 -7
-42 4 -26 41 -64 54 -55 5 3 9 0 9 -6 0 -6 5 -8 10 -5 6 3 10 1 10 -5 0 -7 7
-10 15 -6 8 3 15 1 15 -4 0 -6 9 -10 21 -10 11 0 17 5 14 10 -3 6 -1 10 5 10
7 0 10 13 8 33 -2 20 -8 32 -18 32 -8 0 -18 8 -22 18 -4 9 -14 17 -23 17 -8 0
-15 5 -15 10 0 14 5 13 53 -11 84 -42 130 -56 212 -65 28 -3 62 -7 76 -8 28
-4 67 -22 85 -41 16 -16 88 -129 87 -135 -1 -3 4 -12 12 -20 31 -35 123 -272
139 -357 3 -15 10 -55 16 -88 6 -33 13 -87 16 -120 18 -211 107 -317 271 -322
93 -2 130 9 171 52 18 19 31 35 28 35 -3 0 1 15 9 33 9 23 12 64 9 145 -4 102
-3 112 13 113 10 0 40 1 67 2 27 1 51 7 53 12 2 6 -13 19 -34 30 -20 11 -37
18 -37 16 -1 -3 -16 9 -34 26 l-34 31 2 158 c1 88 3 236 4 331 1 160 2 173 21
187 18 14 41 20 73 19 6 -1 12 2 12 6 0 4 6 8 13 9 6 0 59 15 117 32 58 18
110 33 115 35 11 2 13 3 89 28 26 9 52 14 57 11 5 -3 9 -1 9 4 0 5 6 9 13 10
14 1 41 7 90 20 20 6 38 7 41 4 3 -3 6 0 6 6 0 6 6 9 14 6 10 -4 14 -26 14
-77 0 -40 3 -133 7 -207 4 -74 8 -164 10 -200 2 -36 6 -96 10 -135 3 -38 8
-97 10 -130 10 -130 16 -203 31 -353 5 -54 26 -104 53 -131 12 -12 19 -21 16
-21 -2 0 7 -11 21 -25 14 -14 29 -25 33 -25 5 0 11 -6 14 -13 9 -23 113 -67
164 -69 86 -4 179 54 217 136 16 33 17 52 11 120 -4 45 -9 104 -11 131 -2 28
-4 50 -5 50 -13 0 -36 844 -27 1010 1 31 25 52 56 49 15 -1 27 -3 27 -4 0 -1
18 -4 40 -6 22 -2 41 -8 43 -14 2 -5 9 -10 16 -10 7 0 35 -28 61 -61 27 -34
59 -73 73 -88 60 -65 112 -118 139 -142 43 -38 189 -139 201 -139 5 0 15 -7
22 -15 7 -9 15 -13 18 -10 3 3 10 1 16 -4 13 -11 139 -59 172 -66 28 -6 59
-13 94 -20 81 -19 244 -24 343 -11 122 15 279 66 315 102 7 8 18 12 22 9 5 -3
15 3 22 15 7 11 16 20 21 20 14 0 83 77 113 126 42 68 74 160 79 224 1 14 3
27 4 30 8 20 -2 260 -14 338 -3 24 -8 58 -10 75 -6 59 -17 132 -21 138 -2 3
-6 21 -9 40 -3 19 -8 48 -12 64 -9 41 -10 44 -13 53 -2 4 -4 12 -5 17 -2 6 -4
12 -5 15 -1 3 -3 13 -5 22 -10 54 -77 245 -101 291 -9 15 -13 27 -9 27 3 0 -8
27 -25 60 -16 33 -30 66 -30 74 0 8 -4 16 -8 18 -9 3 -53 94 -51 105 0 3 -6
10 -15 15 -18 10 -10 38 10 38 8 0 14 5 14 11 0 5 5 7 10 4 6 -3 10 -1 10 5 0
6 4 9 9 5 5 -3 12 -1 16 5 4 6 11 8 16 5 5 -4 9 -2 9 4 0 5 10 11 23 13 12 2
21 9 19 16 -1 6 3 12 9 12 5 0 7 4 4 10 -8 13 24 72 35 65 6 -4 10 -1 10 4 0
6 10 11 23 12 21 1 21 1 2 7 -28 10 -25 26 10 53 16 13 26 18 21 11 -5 -9 -1
-11 16 -8 13 3 30 5 38 6 9 0 3 7 -13 16 -15 8 -33 12 -40 9 -6 -4 -3 0 7 9
17 13 17 18 5 33 -13 16 -12 17 3 4 16 -12 19 -10 27 10 5 13 5 28 1 32 -10
11 -1 47 11 47 5 0 4 9 -3 19 -9 15 -15 17 -25 9 -9 -7 -17 -7 -25 -1 -7 6
-20 11 -28 11 -8 1 -28 4 -45 7 -16 4 -45 8 -63 10 -18 2 -37 7 -42 10 -6 3
-10 0 -10 -7 0 -11 -2 -11 -9 0 -4 8 -19 11 -37 8 -16 -2 -48 -7 -72 -11 -24
-4 -46 -13 -49 -20 -2 -8 -11 -11 -19 -8 -7 3 -21 -2 -30 -11 -8 -9 -20 -14
-25 -11 -5 4 -9 2 -9 -3 0 -6 -11 -13 -25 -16 -15 -4 -25 -14 -25 -24 0 -13
-2 -14 -9 -3 -5 7 -13 11 -19 7 -6 -3 -14 0 -19 8 -33 59 -300 324 -380 377
-13 8 -20 19 -16 22 3 4 -1 7 -10 7 -8 0 -17 3 -19 8 -1 4 -28 25 -58 47 -30
22 -58 44 -62 50 -5 6 -8 6 -8 0 0 -6 -3 -5 -8 1 -4 6 -32 26 -62 45 -30 18
-57 35 -60 39 -3 3 -18 12 -35 20 -16 8 -32 18 -35 21 -3 4 -75 40 -160 82
-177 85 -359 153 -495 184 -37 8 -50 11 -52 13 -4 3 -20 7 -35 9 -9 1 -9 4 2
10 8 6 18 7 22 5 4 -3 8 0 8 5 0 6 7 11 15 11 8 0 12 6 9 14 -3 8 3 16 16 19
12 3 19 10 16 15 -3 6 -2 12 4 14 16 5 0 46 -21 51 -10 3 -19 1 -19 -5z m1717
-1083 c0 -8 -4 -12 -9 -9 -5 3 -6 10 -3 15 9 13 12 11 12 -6z m173 -81 c0 -8
-19 -13 -24 -6 -3 5 1 9 9 9 8 0 15 -2 15 -3z m-10 -124 c0 -5 -5 -10 -11 -10
-5 0 -7 5 -4 10 3 6 8 10 11 10 2 0 4 -4 4 -10z m-163 -35 c0 -8 -4 -12 -9 -9
-5 3 -6 10 -3 15 9 13 12 11 12 -6z m-2162 -5 c3 -5 1 -10 -4 -10 -6 0 -11 5
-11 10 0 6 2 10 4 10 3 0 8 -4 11 -10z m2239 -46 c3 -8 2 -12 -4 -9 -6 3 -10
10 -10 16 0 14 7 11 14 -7z m-399 -23 c3 -5 2 -12 -3 -15 -5 -3 -9 1 -9 9 0
17 3 19 12 6z m2 -96 c0 -8 -4 -12 -9 -9 -5 3 -6 10 -3 15 9 13 12 11 12 -6z
m-227 -71 c0 -8 -19 -13 -24 -6 -3 5 1 9 9 9 8 0 15 -2 15 -3z m154 -2 c3 -5
-1 -9 -9 -9 -8 0 -12 4 -9 9 3 4 7 8 9 8 2 0 6 -4 9 -8z m-5120 -400 c3 -5 -1
-9 -9 -9 -8 0 -12 4 -9 9 3 4 7 8 9 8 2 0 6 -4 9 -8z m230 -160 c3 -5 -1 -9
-9 -9 -8 0 -12 4 -9 9 3 4 7 8 9 8 2 0 6 -4 9 -8z m-157 -77 c0 -8 -4 -12 -9
-9 -5 3 -6 10 -3 15 9 13 12 11 12 -6z m-307 -1 c0 -8 -19 -13 -24 -6 -3 5 1
9 9 9 8 0 15 -2 15 -3z m225 -3 c3 -5 2 -12 -3 -15 -5 -3 -9 1 -9 9 0 17 3 19
12 6z m255 3 c0 -8 -19 -13 -24 -6 -3 5 1 9 9 9 8 0 15 -2 15 -3z m-415 -164
c3 -5 1 -10 -4 -10 -6 0 -11 5 -11 10 0 6 2 10 4 10 3 0 8 -4 11 -10z m85 0
c0 -5 -5 -10 -11 -10 -5 0 -7 5 -4 10 3 6 8 10 11 10 2 0 4 -4 4 -10z m240 0
c0 -5 -2 -10 -4 -10 -3 0 -8 5 -11 10 -3 6 -1 10 4 10 6 0 11 -4 11 -10z m240
-80 c0 -5 -2 -10 -4 -10 -3 0 -8 5 -11 10 -3 6 -1 10 4 10 6 0 11 -4 11 -10z
m-570 -36 c0 -8 -19 -13 -24 -6 -3 5 1 9 9 9 8 0 15 -2 15 -3z m90 -40 c0 -8
-19 -13 -24 -6 -3 5 1 9 9 9 8 0 15 -2 15 -3z m235 -3 c3 -5 2 -12 -3 -15 -5
-3 -9 1 -9 9 0 17 3 19 12 6z m85 -1 c0 -5 -2 -10 -4 -10 -3 0 -8 5 -11 10 -3
6 -1 10 4 10 6 0 11 -4 11 -10z m-320 -76 c0 -8 -19 -13 -24 -6 -3 5 1 9 9 9
8 0 15 -2 15 -3z m505 -9 c10 -8 11 -20 5 -75 -1 -8 -8 6 -17 32 -9 27 -20 45
-26 41 -6 -3 -7 -1 -3 5 8 13 25 12 41 -3z m-185 -75 c0 -5 -2 -10 -4 -10 -3
0 -8 5 -11 10 -3 6 -1 10 4 10 6 0 11 -4 11 -10z m164 -11 c-3 -6 -1 -15 6
-19 20 -12 23 -70 4 -70 -14 0 -14 -2 0 -16 17 -17 22 -54 6 -54 -5 0 -14 8
-19 18 -6 9 -11 13 -11 7 0 -5 -4 -4 -9 4 -8 13 -12 13 -28 0 -17 -13 -17 -13
-4 4 13 16 13 20 0 28 -12 8 -11 12 5 24 10 8 22 12 27 10 4 -3 11 0 15 6 4 8
3 9 -4 5 -7 -4 -13 -4 -13 1 -6 35 -5 52 2 48 4 -3 10 -1 14 5 3 5 8 10 11 10
3 0 2 -5 -2 -11z m1766 -490 c0 -19 -1 -19 -16 -5 -8 9 -12 20 -9 26 9 15 25
2 25 -21z m-1215 -288 c3 -5 2 -12 -3 -15 -5 -3 -9 1 -9 9 0 17 3 19 12 6z
m-161 -9 c3 -5 -1 -9 -9 -9 -8 0 -12 4 -9 9 3 4 7 8 9 8 2 0 6 -4 9 -8z m243
-7 c0 -8 -4 -12 -9 -9 -5 3 -6 10 -3 15 9 13 12 11 12 -6z m0 -150 c0 -8 -4
-12 -9 -9 -5 3 -6 10 -3 15 9 13 12 11 12 -6z m-77 -245 c0 -5 -5 -10 -11 -10
-5 0 -7 5 -4 10 3 6 8 10 11 10 2 0 4 -4 4 -10z m240 -80 c0 -5 -5 -10 -11
-10 -5 0 -7 5 -4 10 3 6 8 10 11 10 2 0 4 -4 4 -10z m3194 -706 c3 -8 2 -12
-4 -9 -6 3 -10 10 -10 16 0 14 7 11 14 -7z m256 10 c0 -8 -19 -13 -24 -6 -3 5
1 9 9 9 8 0 15 -2 15 -3z m-360 -20 c0 -8 -19 -13 -24 -6 -3 5 1 9 9 9 8 0 15
-2 15 -3z m187 -9 c0 -8 -4 -12 -9 -9 -5 3 -6 10 -3 15 9 13 12 11 12 -6z m83
5 c0 -5 -5 -10 -11 -10 -5 0 -7 5 -4 10 3 6 8 10 11 10 2 0 4 -4 4 -10z m-605
-88 c-3 -3 -11 0 -18 7 -9 10 -8 11 6 5 10 -3 15 -9 12 -12z m205 8 c0 -5 -5
-10 -11 -10 -5 0 -7 5 -4 10 3 6 8 10 11 10 2 0 4 -4 4 -10z m164 2 c3 -5 -1
-9 -9 -9 -8 0 -12 4 -9 9 3 4 7 8 9 8 2 0 6 -4 9 -8z m-327 -77 c0 -8 -4 -12
-9 -9 -5 3 -6 10 -3 15 9 13 12 11 12 -6z m0 -90 c0 -8 -4 -12 -9 -9 -5 3 -6
10 -3 15 9 13 12 11 12 -6z m83 5 c0 -5 -5 -10 -11 -10 -5 0 -7 5 -4 10 3 6 8
10 11 10 2 0 4 -4 4 -10z m235 0 c3 -5 1 -10 -4 -10 -6 0 -11 5 -11 10 0 6 2
10 4 10 3 0 8 -4 11 -10z m160 1 c3 -5 2 -12 -3 -15 -5 -3 -9 1 -9 9 0 17 3
19 12 6z m482 -6 c0 -8 -4 -12 -9 -9 -5 3 -6 10 -3 15 9 13 12 11 12 -6z
m-147 -71 c0 -8 -19 -13 -24 -6 -3 5 1 9 9 9 8 0 15 -2 15 -3z m103 -39 c-3
-9 -8 -14 -10 -11 -3 3 -2 9 2 15 9 16 15 13 8 -4z"/>
<path d="M4760 6373 c0 -7 -6 -12 -12 -10 -7 1 -12 -4 -10 -11 1 -8 -2 -11 -7
-7 -13 7 -71 -22 -71 -36 0 -6 -4 -8 -9 -5 -13 9 -27 -43 -22 -83 1 -11 61
-20 61 -9 0 4 3 7 8 7 19 -3 33 3 57 27 14 14 23 29 20 35 -3 5 1 6 9 3 15 -6
21 6 17 29 -1 5 3 6 8 3 22 -14 19 15 -4 40 -15 16 -25 21 -25 13 0 -11 -2
-11 -10 1 -6 10 -10 11 -10 3z"/>
<path d="M7450 5941 c0 -7 -25 -19 -52 -25 -3 0 -9 -4 -13 -8 -4 -4 -14 -4
-23 -1 -11 5 -13 3 -7 -8 8 -12 6 -12 -8 0 -13 10 -17 10 -17 1 0 -7 -7 -10
-15 -6 -8 3 -15 2 -15 -3 0 -4 -12 -6 -26 -3 -17 3 -25 1 -21 -5 4 -6 -4 -9
-19 -7 -37 4 -53 -5 -49 -27 2 -10 -1 -18 -8 -16 -7 1 -11 -4 -9 -11 1 -8 -2
-11 -7 -7 -6 3 -19 -3 -31 -15 -11 -11 -20 -17 -20 -14 0 3 -14 -3 -30 -13
-32 -18 -35 -39 -6 -36 10 0 15 -1 12 -4 -6 -6 23 -64 37 -74 5 -3 8 -9 8 -13
-3 -22 1 -25 27 -14 32 13 152 18 152 6 0 -5 10 -4 21 3 15 8 19 8 15 0 -6
-10 30 -17 58 -12 5 1 3 -6 -5 -15 -12 -16 -12 -17 1 -9 8 4 21 13 28 18 13
10 70 19 137 21 22 1 46 8 53 16 8 8 11 9 7 3 -8 -16 0 -16 27 -2 16 9 19 8
13 -2 -6 -9 -3 -11 8 -6 10 4 17 2 17 -4 0 -6 7 -9 15 -5 8 3 15 1 15 -5 0 -6
5 -7 10 -4 6 4 8 11 5 16 -3 5 1 6 10 3 11 -5 17 2 21 25 4 18 9 30 11 27 3
-3 15 -1 28 4 14 5 26 5 34 -3 8 -8 11 -7 11 4 0 9 -12 25 -26 38 -22 19 -28
20 -42 9 -15 -11 -15 -11 -5 3 11 13 9 20 -10 37 -13 12 -27 19 -32 15 -4 -5
-5 -2 -1 4 4 8 -2 17 -18 25 -14 6 -26 15 -26 20 0 4 -7 8 -15 8 -9 0 -18 7
-21 15 -5 12 -10 13 -20 4 -11 -9 -14 -8 -14 2 0 11 -2 11 -10 -1 -7 -10 -12
-12 -17 -4 -5 6 -16 10 -25 8 -10 -1 -21 2 -24 8 -4 6 -10 5 -15 -3 -7 -12 -9
-12 -9 0 0 11 -3 11 -17 0 -11 -10 -14 -10 -9 -1 5 8 1 12 -10 12 -14 0 -15 3
-6 12 7 7 12 17 12 23 0 5 -5 3 -10 -5 -6 -10 -10 -11 -10 -2 0 6 -4 12 -10
12 -5 0 -10 -4 -10 -9z m-203 -116 c0 -8 -4 -12 -9 -9 -5 3 -6 10 -3 15 9 13
12 11 12 -6z m333 -1 c0 -8 -19 -13 -24 -6 -3 5 1 9 9 9 8 0 15 -2 15 -3z
m-415 -73 c3 -5 2 -12 -3 -15 -5 -3 -9 1 -9 9 0 17 3 19 12 6z m80 -10 c3 -5
2 -12 -3 -15 -5 -3 -9 1 -9 9 0 17 3 19 12 6z m159 1 c3 -5 -1 -9 -9 -9 -8 0
-12 4 -9 9 3 4 7 8 9 8 2 0 6 -4 9 -8z m160 0 c3 -5 -1 -9 -9 -9 -8 0 -12 4
-9 9 3 4 7 8 9 8 2 0 6 -4 9 -8z m123 -37 c0 -8 -4 -12 -9 -9 -5 3 -6 10 -3
15 9 13 12 11 12 -6z m-202 -4 c3 -5 2 -12 -3 -15 -5 -3 -9 1 -9 9 0 17 3 19
12 6z"/>
<path d="M7861 5704 c0 -11 3 -14 6 -6 3 7 2 16 -1 19 -3 4 -6 -2 -5 -13z"/>
<path d="M8097 5641 c3 -11 13 -28 23 -39 10 -11 16 -22 13 -25 -3 -3 3 -5 14
-4 22 1 29 37 7 37 -8 0 -12 5 -9 11 7 11 -22 38 -42 39 -6 0 -9 -8 -6 -19z"/>
<path d="M1315 5580 c3 -5 2 -10 -3 -10 -6 0 -5 -10 1 -24 8 -16 14 -21 19
-13 4 7 8 8 8 2 0 -5 4 -4 9 4 11 17 3 43 -10 35 -5 -3 -9 0 -9 5 0 6 -5 11
-11 11 -5 0 -7 -4 -4 -10z"/>
<path d="M6597 5576 c-3 -8 -2 -18 3 -21 13 -8 20 9 11 24 -6 10 -10 9 -14 -3z"/>
<path d="M5680 5139 c0 -5 5 -7 10 -4 6 3 10 8 10 11 0 2 -4 4 -10 4 -5 0 -10
-5 -10 -11z"/>
<path d="M5646 5124 c-22 -21 -20 -27 4 -14 11 6 20 15 20 20 0 14 -6 12 -24
-6z"/>
<path d="M2533 4998 c-23 -6 -30 -13 -26 -26 4 -19 39 -27 48 -12 3 5 13 6 23
3 9 -3 14 -3 10 2 -4 4 0 14 10 21 9 7 13 14 7 14 -5 1 -17 3 -25 4 -8 2 -29
-1 -47 -6z"/>
<path d="M2139 4980 c-7 -12 -8 -12 -9 -1 0 17 -36 -12 -52 -43 -9 -16 -8 -18
8 -12 18 6 18 5 2 -8 -28 -21 -22 -61 11 -85 16 -12 37 -22 47 -24 11 -2 27
-7 37 -12 10 -4 20 -5 23 -2 4 3 16 2 29 -3 13 -5 26 -6 30 -2 4 4 10 7 13 7
18 1 52 27 52 40 0 8 -9 24 -19 34 -11 11 -17 21 -15 24 2 2 -2 10 -11 17 -8
7 -15 19 -15 26 0 8 -3 13 -7 13 -23 -4 -43 2 -38 11 3 6 1 10 -4 10 -6 0 -11
6 -11 14 0 18 -59 15 -71 -4z m106 -99 c3 -5 2 -12 -3 -15 -5 -3 -9 1 -9 9 0
17 3 19 12 6z"/>
<path d="M5408 4776 c-23 -17 -23 -35 0 -29 10 2 18 13 19 24 2 22 3 22 -19 5z"/>
<path d="M7663 4360 c3 -11 1 -18 -4 -14 -5 3 -9 0 -9 -5 0 -6 5 -11 11 -11 5
0 7 -5 3 -11 -4 -7 -1 -10 7 -7 8 2 15 19 17 36 3 25 -1 32 -14 32 -11 0 -15
-6 -11 -20z"/>
<path d="M746 4159 c-22 -21 -18 -23 18 -9 14 5 26 15 26 22 0 10 -2 10 -9 -1
-5 -7 -10 -9 -12 -4 -2 6 -13 2 -23 -8z"/>
<path d="M892 4173 c-6 -2 -10 -9 -7 -14 4 -5 -1 -6 -9 -3 -9 4 -18 -1 -22
-10 -3 -9 -13 -16 -22 -16 -12 0 -13 -3 -5 -11 13 -13 86 17 77 32 -3 5 2 6
10 3 11 -4 16 0 16 10 0 16 -13 19 -38 9z"/>
<path d="M7864 4159 c-3 -6 -2 -15 3 -20 5 -5 9 -1 9 11 0 23 -2 24 -12 9z"/>
<path d="M7877 4113 c-4 -3 -7 -15 -7 -25 0 -10 -7 -21 -15 -24 -8 -4 -13 -10
-10 -14 3 -5 0 -12 -6 -16 -7 -4 -9 -3 -6 2 3 6 2 16 -2 23 -6 9 -10 5 -15
-14 -4 -14 -4 -30 -1 -35 4 -6 2 -10 -4 -10 -5 0 -8 -11 -7 -25 2 -13 0 -22
-4 -20 -4 3 -10 -4 -13 -15 -3 -11 0 -20 6 -20 7 0 6 -4 -3 -10 -12 -7 -11
-12 5 -31 11 -12 14 -19 8 -15 -19 10 -16 -4 5 -27 12 -15 14 -21 4 -24 -6 -3
-10 -9 -6 -14 3 -5 13 -5 25 1 14 8 19 8 17 -2 -2 -6 2 -12 7 -13 6 0 16 -4
23 -8 7 -5 12 -3 12 5 0 8 10 22 21 32 18 15 19 20 8 27 -11 7 -10 9 5 9 13 0
17 5 13 20 -3 11 -1 23 5 26 5 3 8 15 5 25 -3 11 -2 19 1 19 4 0 6 19 5 42 0
24 -2 43 -3 43 -1 0 -3 19 -3 42 -1 23 -6 45 -11 50 -5 4 -7 3 -3 -2 10 -19
-8 -35 -31 -28 -14 3 -21 11 -18 19 6 15 3 18 -7 7z"/>
<path d="M780 4029 c0 -6 -4 -7 -10 -4 -5 3 -10 2 -10 -4 0 -5 -9 -13 -20 -16
-11 -4 -18 -10 -15 -15 7 -11 32 -3 62 21 19 14 20 18 8 23 -8 3 -15 1 -15 -5z"/>
<path d="M868 3993 c7 -3 16 -2 19 1 4 3 -2 6 -13 5 -11 0 -14 -3 -6 -6z"/>
<path d="M2164 3981 c3 -5 -4 -11 -15 -14 -12 -3 -18 -10 -15 -16 5 -7 15 -7
31 1 29 13 32 23 9 32 -8 3 -13 2 -10 -3z"/>
<path d="M3990 3814 c0 -5 -22 -8 -50 -7 -44 1 -52 -2 -68 -25 -19 -27 -19
-27 4 -50 13 -12 25 -21 27 -20 3 2 22 -14 43 -36 21 -21 34 -36 28 -32 -7 3
-14 0 -17 -8 -6 -15 24 -48 39 -45 5 1 11 0 14 -1 27 -10 59 -8 71 6 11 14 10
19 -11 36 -14 11 -19 16 -11 12 11 -5 13 -3 8 10 -5 13 0 18 23 23 33 6 36 12
18 32 -8 8 -8 11 -2 8 7 -4 14 2 17 13 3 11 1 20 -4 20 -5 0 -9 7 -9 15 0 17
-83 58 -88 44 -3 -6 -10 -5 -18 2 -8 6 -14 8 -14 3z m70 -70 c0 -8 -19 -13
-24 -6 -3 5 1 9 9 9 8 0 15 -2 15 -3z m-75 -44 c3 -5 1 -10 -4 -10 -6 0 -11 5
-11 10 0 6 2 10 4 10 3 0 8 -4 11 -10z"/>
<path d="M2900 3600 c-9 -6 -10 -10 -3 -10 6 0 15 5 18 10 8 12 4 12 -15 0z"/>
<path d="M697 3563 c-3 -5 -2 -15 2 -22 5 -7 11 -9 14 -4 3 5 2 15 -2 22 -5 7
-11 9 -14 4z"/>
<path d="M2710 3495 c0 -28 21 -57 36 -51 8 3 13 2 10 -3 -5 -8 13 -17 52 -26
8 -2 11 2 8 10 -3 8 0 17 5 21 11 7 -49 46 -88 58 -17 6 -23 3 -23 -9z m50
-11 c0 -8 -19 -13 -24 -6 -3 5 1 9 9 9 8 0 15 -2 15 -3z"/>
<path d="M7344 3492 c6 -10 -10 -37 -24 -38 -5 -1 -11 -2 -12 -4 -2 -1 -15 -3
-30 -4 -18 -1 -24 2 -18 9 6 7 2 11 -11 12 -10 1 -19 -2 -19 -6 0 -9 -31 -22
-62 -26 -9 -1 -25 -6 -35 -10 -10 -4 -29 -10 -42 -12 -37 -6 -105 -54 -96 -67
3 -3 2 -4 -2 -1 -3 3 -12 0 -20 -6 -10 -9 -17 -8 -28 1 -8 7 -15 9 -15 4 0 -4
-11 3 -25 16 -13 12 -23 26 -21 29 2 3 -2 12 -10 18 -24 23 -26 -5 -2 -32 30
-35 32 -82 3 -81 -11 1 -23 6 -27 11 -5 6 -8 5 -8 -2 0 -7 -9 -21 -20 -31 -11
-11 -22 -29 -25 -41 -2 -11 -7 -26 -11 -32 -3 -6 0 -15 7 -20 9 -6 0 -7 -25
-3 -35 6 -38 5 -25 -9 8 -8 17 -13 20 -11 4 2 9 -8 12 -21 2 -14 2 -23 -1 -21
-3 3 -13 -4 -23 -15 -9 -11 -21 -20 -26 -20 -11 1 -10 -22 2 -35 5 -7 13 -10
18 -7 4 2 7 -3 7 -12 0 -9 5 -13 10 -10 6 3 13 -1 16 -10 5 -13 9 -13 23 -3 9
7 13 8 8 3 -4 -4 1 -17 10 -28 13 -15 14 -18 3 -12 -12 6 -12 5 -3 -5 7 -7 38
-13 78 -13 36 0 69 -5 72 -10 3 -6 2 -7 -4 -4 -5 4 -20 -3 -33 -15 -16 -15
-19 -23 -11 -26 7 -2 25 7 39 20 32 29 62 42 62 26 0 -7 4 -7 14 1 8 7 15 8
18 2 1 -5 9 -11 17 -13 8 -2 23 -11 33 -21 11 -10 23 -15 26 -11 4 3 2 9 -5
11 -16 6 21 43 43 43 8 0 13 4 10 9 -3 4 10 6 29 4 28 -3 35 0 35 14 0 15 2
15 9 4 8 -13 12 -13 27 0 9 8 19 13 21 12 12 -9 35 1 69 32 32 29 36 36 24 45
-8 5 -10 10 -4 10 6 0 32 20 58 45 44 43 59 64 34 49 -7 -4 -8 -3 -4 5 4 6 11
9 15 7 4 -3 28 16 52 42 24 25 35 39 23 29 -19 -16 -21 -15 -37 3 -11 14 -13
20 -4 20 8 0 9 3 1 8 -6 4 -10 17 -9 30 1 16 -2 21 -13 17 -12 -5 -13 -3 -2
10 10 12 10 21 1 41 -6 14 -9 30 -6 35 4 5 -1 9 -9 9 -28 0 -96 32 -96 45 0 7
-7 16 -16 19 -22 8 -36 7 -30 -2z m66 -72 c0 -5 -5 -10 -11 -10 -5 0 -7 5 -4
10 3 6 8 10 11 10 2 0 4 -4 4 -10z m-325 -69 c3 -5 2 -12 -3 -15 -5 -3 -9 1
-9 9 0 17 3 19 12 6z m240 0 c3 -5 2 -12 -3 -15 -5 -3 -9 1 -9 9 0 17 3 19 12
6z m-161 -9 c3 -5 -1 -9 -9 -9 -8 0 -12 4 -9 9 3 4 7 8 9 8 2 0 6 -4 9 -8z
m-234 -82 c0 -5 -2 -10 -4 -10 -3 0 -8 5 -11 10 -3 6 -1 10 4 10 6 0 11 -4 11
-10z m275 -29 c3 -5 2 -12 -3 -15 -5 -3 -9 1 -9 9 0 17 3 19 12 6z m-120 -120
c3 -5 2 -12 -3 -15 -5 -3 -9 1 -9 9 0 17 3 19 12 6z m240 0 c3 -5 2 -12 -3
-15 -5 -3 -9 1 -9 9 0 17 3 19 12 6z m-480 -10 c3 -5 2 -12 -3 -15 -5 -3 -9 1
-9 9 0 17 3 19 12 6z m165 -81 c0 -5 -2 -10 -4 -10 -3 0 -8 5 -11 10 -3 6 -1
10 4 10 6 0 11 -4 11 -10z m155 1 c3 -5 2 -12 -3 -15 -5 -3 -9 1 -9 9 0 17 3
19 12 6z"/>
<path d="M1349 3343 c-13 -16 -12 -17 4 -4 9 7 17 15 17 17 0 8 -8 3 -21 -13z"/>
<path d="M6790 3356 c0 -2 7 -7 16 -10 8 -3 12 -2 9 4 -6 10 -25 14 -25 6z"/>
<path d="M2750 3339 c0 -5 -4 -8 -8 -5 -4 2 -9 -12 -10 -32 -2 -20 -7 -41 -13
-48 -6 -7 -2 -20 11 -37 11 -14 20 -30 20 -36 0 -6 5 -11 10 -11 6 0 18 -8 28
-17 29 -28 152 -85 153 -70 0 6 4 2 9 -11 8 -19 13 -21 28 -13 13 7 22 7 30
-1 9 -9 17 -6 34 12 13 14 23 31 23 40 0 10 8 14 23 12 12 -2 22 -1 22 2 0 11
-47 55 -53 49 -4 -3 -7 3 -7 15 0 13 -6 22 -15 22 -9 0 -12 6 -9 15 6 15 -33
37 -48 28 -5 -2 -8 1 -8 6 0 6 -7 11 -15 11 -8 0 -15 4 -15 9 0 9 -38 24 -53
22 -4 -1 -21 6 -38 15 -23 11 -29 12 -23 2 4 -7 -2 -4 -14 6 -12 11 -22 15
-22 11 0 -5 -5 -4 -12 3 -15 15 -28 15 -28 1z m135 -58 c3 -5 2 -12 -3 -15 -5
-3 -9 1 -9 9 0 17 3 19 12 6z m-115 -21 c0 -5 -2 -10 -4 -10 -3 0 -8 5 -11 10
-3 6 -1 10 4 10 6 0 11 -4 11 -10z m77 -85 c0 -8 -4 -12 -9 -9 -5 3 -6 10 -3
15 9 13 12 11 12 -6z m83 9 c0 -8 -19 -13 -24 -6 -3 5 1 9 9 9 8 0 15 -2 15
-3z m124 -82 c3 -5 -1 -9 -9 -9 -8 0 -12 4 -9 9 3 4 7 8 9 8 2 0 6 -4 9 -8z"/>
<path d="M1207 3165 c-4 -8 -10 -14 -14 -13 -16 3 -59 -24 -77 -50 l-19 -27
24 23 c14 12 33 22 42 22 9 0 17 5 17 12 0 6 3 8 7 5 3 -4 13 2 21 14 8 11 12
22 9 25 -2 3 -7 -2 -10 -11z"/>
<path d="M6667 3049 c7 -7 15 -10 18 -7 3 3 -2 9 -12 12 -14 6 -15 5 -6 -5z"/>
<path d="M1265 2960 c-3 -5 -2 -10 4 -10 5 0 13 5 16 10 3 6 2 10 -4 10 -5 0
-13 -4 -16 -10z"/>
<path d="M4090 2682 c-6 -2 -2 -12 9 -21 12 -10 18 -21 14 -25 -6 -6 7 -8 42
-8 30 0 35 2 35 22 0 11 -7 20 -15 20 -8 0 -15 3 -15 8 0 7 -51 10 -70 4z"/>
<path d="M7705 2680 c3 -6 -1 -7 -9 -4 -16 6 -59 -23 -63 -43 -2 -7 7 -10 24
-7 33 6 45 13 38 24 -3 4 3 7 12 6 10 0 19 7 21 17 2 10 -3 17 -13 17 -9 0
-13 -4 -10 -10z"/>
<path d="M6100 2330 c0 -4 -8 -6 -19 -3 -10 3 -22 0 -25 -6 -4 -6 5 -8 26 -5
18 3 39 6 46 6 15 2 6 11 -13 14 -8 1 -15 -1 -15 -6z"/>
</g>
</svg>
