<svg xmlns="http://www.w3.org/2000/svg" width="20" height="20" viewBox="0 0 20 20">
  <g id="bx-copyright" transform="translate(-2 -2)">
    <path id="Path_23" data-name="Path 23" d="M12,22A10.133,10.133,0,0,0,22,12,10.133,10.133,0,0,0,12,2,10.133,10.133,0,0,0,2,12,10.133,10.133,0,0,0,12,22ZM12,4a8.106,8.106,0,0,1,8,8,8.106,8.106,0,0,1-8,8,8.106,8.106,0,0,1-8-8A8.106,8.106,0,0,1,12,4Z" fill="#d61424"/>
    <path id="Path_24" data-name="Path 24" d="M12,17a5.328,5.328,0,0,0,3.707-1.292l-1.414-1.416A3.343,3.343,0,0,1,12,15a3,3,0,0,1,0-6,3.345,3.345,0,0,1,2.293.707l1.414-1.414A5.323,5.323,0,0,0,12,7a5,5,0,0,0,0,10Z" fill="#d61424"/>
  </g>
</svg>
